<?xml version="1.0"?>
<svg width="120.65" height="120.65" xmlns="http://www.w3.org/2000/svg" xmlns:svg="http://www.w3.org/2000/svg">
 <g class="layer">
  <title>Layer 1</title>
  <g fill-rule="evenodd" id="svg_1">
   <path d="m101.19,18.41c1.12,-6.47 2.75,-10.54 4.57,-10.55c3.38,0.01 6.13,14.12 6.13,31.54s-2.75,31.54 -6.13,31.54c-1.39,0 -2.67,-2.4 -3.7,-6.42c-1.63,14.71 -5.01,24.82 -8.93,24.82c-3.03,0 -5.75,-6.07 -7.58,-15.65c-1.25,18.22 -4.38,31.14 -8.05,31.14c-2.3,0 -4.4,-5.12 -5.95,-13.46c-1.87,17.21 -6.18,29.28 -11.22,29.28s-9.36,-12.06 -11.22,-29.28c-1.54,8.34 -3.64,13.46 -5.95,13.46c-3.67,0 -6.8,-12.93 -8.05,-31.14c-1.83,9.58 -4.54,15.65 -7.58,15.65c-3.91,0 -7.3,-10.11 -8.93,-24.82c-1.02,4.03 -2.31,6.42 -3.7,6.42c-3.39,0 -6.13,-14.12 -6.13,-31.54s2.74,-31.54 6.13,-31.54c1.82,0 3.44,4.08 4.57,10.55c1.81,-11.16 4.74,-18.41 8.06,-18.41c3.94,0 7.35,10.26 8.97,25.15c1.58,-10.84 3.98,-17.75 6.66,-17.75c3.76,0 6.96,13.59 8.15,32.55c2.23,-9.72 5.46,-15.82 9.03,-15.82s6.8,6.1 9.02,15.82c1.19,-18.96 4.38,-32.55 8.15,-32.55c2.68,0 5.07,6.91 6.66,17.75c1.61,-14.89 5.03,-25.15 8.96,-25.15c3.31,0 6.25,7.26 8.06,18.41zm-101.19,17.89c0,-7.79 1.56,-14.1 3.48,-14.1s3.48,6.31 3.48,14.1s-1.56,14.1 -3.48,14.1s-3.48,-6.32 -3.48,-14.1zm113.7,0c0,-7.79 1.56,-14.1 3.48,-14.1s3.48,6.31 3.48,14.1s-1.56,14.1 -3.48,14.1s-3.48,-6.32 -3.48,-14.1z" fill="#ffffff" id="svg_3"/>
  </g>
 </g>
</svg>